<?xml version="1.0" encoding="UTF-8" standalone="no"?>
<!-- Created with Inkscape (http://www.inkscape.org/) -->

<svg
   xmlns:dc="http://purl.org/dc/elements/1.1/"
   xmlns:cc="http://creativecommons.org/ns#"
   xmlns:rdf="http://www.w3.org/1999/02/22-rdf-syntax-ns#"
   xmlns:svg="http://www.w3.org/2000/svg"
   xmlns="http://www.w3.org/2000/svg"
   xmlns:sodipodi="http://sodipodi.sourceforge.net/DTD/sodipodi-0.dtd"
   xmlns:inkscape="http://www.inkscape.org/namespaces/inkscape"
   width="120"
   height="100"
   viewBox="0 0 120.00001 100.00001"
   id="svg2"
   version="1.1"
   inkscape:version="0.91 r13725"
   sodipodi:docname="safe.svg">
  <defs
     id="defs4" />
  <sodipodi:namedview
     id="base"
     pagecolor="#ffffff"
     bordercolor="#666666"
     borderopacity="1.0"
     inkscape:pageopacity="0.0"
     inkscape:pageshadow="2"
     inkscape:zoom="2"
     inkscape:cx="89.83358"
     inkscape:cy="-10.005014"
     inkscape:document-units="px"
     inkscape:current-layer="layer1"
     showgrid="false"
     inkscape:window-width="1855"
     inkscape:window-height="1056"
     inkscape:window-x="65"
     inkscape:window-y="24"
     inkscape:window-maximized="1"
     showguides="true"
     inkscape:guide-bbox="true"
     units="px" />
  <metadata
     id="metadata7">
    <rdf:RDF>
      <cc:Work
         rdf:about="">
        <dc:format>image/svg+xml</dc:format>
        <dc:type
           rdf:resource="http://purl.org/dc/dcmitype/StillImage" />
        <dc:title></dc:title>
      </cc:Work>
    </rdf:RDF>
  </metadata>
  <g
     inkscape:label="Layer 1"
     inkscape:groupmode="layer"
     id="layer1"
     transform="translate(0,-952.36212)">
    <path
       style="fill:none;fill-rule:evenodd;stroke:#000000;stroke-width:1px;stroke-linecap:butt;stroke-linejoin:miter;stroke-opacity:1"
       d="m 3.86522,1035.5472 113.40254,-4.0152"
       id="path4282"
       inkscape:connector-curvature="0"
       sodipodi:nodetypes="cc"
       inkscape:export-xdpi="120"
       inkscape:export-ydpi="120"
       inkscape:export-filename="/tmp/safe.png" />
    <path
       style="fill:none;fill-rule:evenodd;stroke:#000000;stroke-width:1px;stroke-linecap:butt;stroke-linejoin:miter;stroke-opacity:1"
       d="m 35.91444,1034.0776 c -0.15744,-0.2508 -0.432,-0.3947 -0.61872,-0.6187 -0.0943,-0.1132 -0.16929,-0.2417 -0.26516,-0.3536 -0.0813,-0.095 -0.18843,-0.1665 -0.26517,-0.2651 -0.54743,-0.7039 -0.16453,-0.3235 -0.61872,-0.9723 -0.10818,-0.1546 -0.24036,-0.291 -0.35355,-0.442 -0.0637,-0.085 -0.11042,-0.1822 -0.17678,-0.2651 -0.0521,-0.065 -0.11785,-0.1179 -0.17677,-0.1768 -0.20624,-0.2062 -0.42361,-0.4019 -0.61872,-0.6187 -0.94481,-1.0498 -0.0423,-0.086 -0.70711,-0.8839 -0.0534,-0.064 -0.11785,-0.1178 -0.17678,-0.1768 -0.0884,-0.088 -0.16755,-0.1871 -0.26516,-0.2651 -0.0514,-0.041 -0.12196,-0.052 -0.17678,-0.088 -0.0347,-0.023 -0.0511,-0.07 -0.0884,-0.088 -0.0264,-0.013 -0.0676,0.021 -0.0884,0 -0.0208,-0.021 0.0132,-0.062 0,-0.088 -0.0186,-0.037 -0.0589,-0.059 -0.0884,-0.088"
       id="path4284"
       inkscape:connector-curvature="0"
       inkscape:export-xdpi="120"
       inkscape:export-ydpi="120"
       inkscape:export-filename="/tmp/safe.png" />
    <path
       style="fill:none;fill-rule:evenodd;stroke:#000000;stroke-width:1px;stroke-linecap:butt;stroke-linejoin:miter;stroke-opacity:1"
       d="m 31.14147,1028.3324 c 0.2527,-0.3724 0.20927,-0.8335 0.35355,-1.2375 0.10673,-0.2988 0.23854,-0.5881 0.35356,-0.8839 0.39632,-1.0191 0.15229,-0.5081 0.7071,-1.6793 0.002,0 0.70662,-1.413 0.70711,-1.4143 0.33981,-1.1893 0.003,-0.1541 0.35355,-0.9722 0.0367,-0.086 0.0506,-0.1801 0.0884,-0.2652 0.10194,-0.2294 0.29925,-0.524 0.35355,-0.7955 0.0116,-0.058 -0.0115,-0.119 0,-0.1768 0.0183,-0.091 0.0589,-0.1767 0.0884,-0.2651 0.0295,-0.088 0.0467,-0.1819 0.0884,-0.2652 0.0186,-0.037 0.0589,-0.059 0.0884,-0.088"
       id="path4286"
       inkscape:connector-curvature="0"
       inkscape:export-xdpi="120"
       inkscape:export-ydpi="120"
       inkscape:export-filename="/tmp/safe.png" />
    <path
       style="fill:none;fill-rule:evenodd;stroke:#000000;stroke-width:1px;stroke-linecap:butt;stroke-linejoin:miter;stroke-opacity:1"
       d="m 34.58861,1019.5819 c 0.0295,-0.2357 0.035,-0.4756 0.0884,-0.7071 0.0357,-0.1546 0.11785,-0.2946 0.17678,-0.4419 0.0589,-0.2652 0.13212,-0.5276 0.17678,-0.7955 0.12011,-0.7207 0.0504,-0.8076 0.17677,-1.5026 0.0167,-0.092 0.0781,-0.1726 0.0884,-0.2652 0.0195,-0.1757 -0.0126,-0.354 0,-0.5303 0.0169,-0.237 0.0715,-0.4702 0.0884,-0.7071 0.0126,-0.1764 0,-0.3536 0,-0.5304 0,-0.1767 0.0118,-0.3539 0,-0.5303 -0.0178,-0.2662 -0.0662,-0.5296 -0.0884,-0.7955 -0.0196,-0.2349 0,-0.4714 0,-0.7071"
       id="path4288"
       inkscape:connector-curvature="0"
       inkscape:export-xdpi="120"
       inkscape:export-ydpi="120"
       inkscape:export-filename="/tmp/safe.png" />
    <path
       style="fill:none;fill-rule:evenodd;stroke:#000000;stroke-width:1px;stroke-linecap:butt;stroke-linejoin:miter;stroke-opacity:1"
       d="m 35.29572,1011.185 c 0.0589,-0.1178 0.10369,-0.2439 0.17678,-0.3535 0.0462,-0.069 0.12472,-0.1117 0.17677,-0.1768 0.0664,-0.083 0.11786,-0.1768 0.17678,-0.2652 0.0589,-0.088 0.13493,-0.1675 0.17678,-0.2651 0.13584,-0.317 0.21349,-0.6572 0.35355,-0.9723 0.0965,-0.2171 0.25708,-0.4017 0.35355,-0.6187 0.14006,-0.3152 0.21974,-0.6545 0.35356,-0.9723 0.10226,-0.2429 0.2357,-0.4714 0.35355,-0.7071 0.11785,-0.3241 0.22298,-0.6531 0.35355,-0.9723 0.1348,-0.3295 0.2914,-0.6497 0.44195,-0.9723 0.18995,-0.407 0.17677,-0.2157 0.17677,-0.4419"
       id="path4290"
       inkscape:connector-curvature="0"
       inkscape:export-xdpi="120"
       inkscape:export-ydpi="120"
       inkscape:export-filename="/tmp/safe.png" />
    <path
       style="fill:none;fill-rule:evenodd;stroke:#000000;stroke-width:1px;stroke-linecap:butt;stroke-linejoin:miter;stroke-opacity:1"
       d="m 38.74287,1003.9372 c 0.0589,-0.1179 0.10368,-0.244 0.17677,-0.3536 0.0462,-0.069 0.11785,-0.1178 0.17678,-0.1768 0.11785,-0.1178 0.24283,-0.2289 0.35355,-0.3535 0.12534,-0.141 0.23409,-0.2959 0.35356,-0.442 0.14571,-0.1781 0.2933,-0.3546 0.44194,-0.5303 0.17546,-0.2073 0.36251,-0.4051 0.53033,-0.6187 0.15658,-0.1993 0.27068,-0.4319 0.44194,-0.6187 0.15549,-0.1697 0.35834,-0.2891 0.53033,-0.442 0.0934,-0.083 0.17174,-0.1821 0.26517,-0.2651 0.17198,-0.1529 0.35715,-0.2904 0.53033,-0.442 0.2983,-0.261 0.58557,-0.5344 0.88388,-0.7955 0.17318,-0.1515 0.36762,-0.2792 0.53033,-0.4419 0.16271,-0.1627 0.29463,-0.3536 0.44194,-0.5303"
       id="path4292"
       inkscape:connector-curvature="0"
       inkscape:export-xdpi="120"
       inkscape:export-ydpi="120"
       inkscape:export-filename="/tmp/safe.png" />
    <path
       style="fill:none;fill-rule:evenodd;stroke:#000000;stroke-width:1px;stroke-linecap:butt;stroke-linejoin:miter;stroke-opacity:1"
       d="m 46.34426,997.0429 c 1.5377,0.4393 -0.37656,-0.1255 1.32583,0.4419 0.29181,0.097 0.58641,0.1869 0.88388,0.2652 0.26269,0.069 0.53473,0.1007 0.7955,0.1768 0.44721,0.1304 0.87845,0.312 1.32582,0.4419 0.58331,0.1693 1.17653,0.3028 1.76777,0.4419 0.43932,0.1034 1.7223,0.442 2.20971,0.442"
       id="path4294"
       inkscape:connector-curvature="0"
       inkscape:export-xdpi="120"
       inkscape:export-ydpi="120"
       inkscape:export-filename="/tmp/safe.png" />
    <path
       style="fill:none;fill-rule:evenodd;stroke:#000000;stroke-width:1px;stroke-linecap:butt;stroke-linejoin:miter;stroke-opacity:1"
       d="m 56.6857,999.6061 c 0.66281,0.5423 1.2869,1.1314 1.94454,1.6794 0.11317,0.094 0.23476,0.1781 0.35356,0.2652 0.32315,0.237 0.64154,0.4808 0.97227,0.7071 0.22939,0.1569 0.47584,0.2878 0.70711,0.4419 0.21088,0.1406 0.40138,0.3116 0.61871,0.442 0.40471,0.2428 0.89326,0.4294 1.32583,0.6187 0.26585,0.1163 0.52505,0.2484 0.7955,0.3535 0.2605,0.1014 0.52542,0.1932 0.79549,0.2652 1.55558,0.4148 -0.12491,-0.13 0.7955,0.1768"
       id="path4296"
       inkscape:connector-curvature="0"
       inkscape:export-xdpi="120"
       inkscape:export-ydpi="120"
       inkscape:export-filename="/tmp/safe.png" />
    <path
       style="fill:none;fill-rule:evenodd;stroke:#000000;stroke-width:1px;stroke-linecap:butt;stroke-linejoin:miter;stroke-opacity:1"
       d="m 65.7897,1005.8817 c -0.0834,0.4429 -0.18684,0.882 -0.26516,1.3258 -0.0362,0.2052 -0.0447,0.415 -0.0884,0.6188 -0.045,0.2097 -0.12219,0.4112 -0.17678,0.6187 -0.0927,0.3524 -0.17678,0.7071 -0.26516,1.0606 -0.0589,0.2357 -0.13201,0.4683 -0.17678,0.7071 -0.0438,0.2335 -0.0563,0.4718 -0.0884,0.7071 -0.0563,0.4129 -0.10828,0.8265 -0.17678,1.2375 -0.0494,0.2964 -0.12456,0.588 -0.17677,0.8839 -0.0362,0.2051 -0.0541,0.4132 -0.0884,0.6187 -0.005,0.029 -0.0295,-0.088 0,-0.088 0.0295,0 0,0.059 0,0.088"
       id="path4298"
       inkscape:connector-curvature="0"
       inkscape:export-xdpi="120"
       inkscape:export-ydpi="120"
       inkscape:export-filename="/tmp/safe.png" />
    <path
       style="fill:none;fill-rule:evenodd;stroke:#000000;stroke-width:1px;stroke-linecap:butt;stroke-linejoin:miter;stroke-opacity:1"
       d="m 64.99421,1016.0464 c 0.72741,1.273 -0.0501,0 0.79549,1.149 0.18846,0.257 0.34128,0.539 0.53033,0.7955 0.44764,0.6075 0.96145,1.1641 1.41421,1.7678 1.55766,2.0769 -0.0417,0.058 0.97228,1.3258"
       id="path4300"
       inkscape:connector-curvature="0"
       inkscape:export-xdpi="120"
       inkscape:export-ydpi="120"
       inkscape:export-filename="/tmp/safe.png" />
    <path
       style="fill:none;fill-rule:evenodd;stroke:#000000;stroke-width:1px;stroke-linecap:butt;stroke-linejoin:miter;stroke-opacity:1"
       d="m 69.06007,1021.5265 c -0.46331,0.9266 0.19219,-0.4017 -0.44194,0.9722 -0.0828,0.1795 -0.18234,0.3509 -0.26517,0.5304 -0.094,0.2037 -0.17027,0.4153 -0.26516,0.6187 -0.11144,0.2388 -0.24793,0.4656 -0.35356,0.7071 -0.10089,0.2306 -0.17167,0.4734 -0.26516,0.7071 -0.24598,0.6149 -0.30926,0.7069 -0.61872,1.3258 -0.0884,0.1768 -0.17678,0.3536 -0.26516,0.5303 -0.0884,0.1768 -0.15554,0.3659 -0.26517,0.5304 -0.0163,0.024 -0.0589,0 -0.0884,0"
       id="path4302"
       inkscape:connector-curvature="0"
       inkscape:export-xdpi="120"
       inkscape:export-ydpi="120"
       inkscape:export-filename="/tmp/safe.png" />
    <path
       style="fill:none;fill-rule:evenodd;stroke:#000000;stroke-width:1px;stroke-linecap:butt;stroke-linejoin:miter;stroke-opacity:1"
       d="m 66.23164,1028.0672 c 0.0884,0.1768 0.17678,0.3535 0.26517,0.5303 0.358,0.716 0.23912,0.4582 0.61872,1.3258 0.0899,0.2056 0.16481,0.4181 0.26516,0.6188 0.0475,0.095 0.12212,0.174 0.17678,0.2651 0.24442,0.4074 0.45532,0.8346 0.7071,1.2375 0.0221,0.035 0.0653,0.054 0.0884,0.088 0.0366,0.055 0.0418,0.1302 0.0884,0.1767 0.0208,0.021 0,-0.059 0,-0.088"
       id="path4304"
       inkscape:connector-curvature="0"
       inkscape:export-xdpi="120"
       inkscape:export-ydpi="120"
       inkscape:export-filename="/tmp/safe.png" />
    <path
       style="fill:none;fill-rule:evenodd;stroke:#000000;stroke-width:1px;stroke-linecap:round;stroke-linejoin:round;stroke-opacity:1"
       d="m 14.25929,1033.9008 c 1.75805,-3.5108 3.9483,-6.8609 4.94975,-10.695 l 0.0884,0 -0.17679,-1.0606 c -1.47916,-5.932 -1.34047,-12.1104 -2.38648,-18.1196 2.15338,-2.1927 4.88383,-4.0172 7.42463,-5.5685 l 0.53032,-0.7071 c 0.64702,-2.6971 2.03099,-5.0743 3.09359,-7.60142 l 0.26517,-0.26516 c 2.36142,-0.25455 4.81296,-0.25889 7.15945,-0.442 l 1.14905,-0.26511 c 0.90573,-3.4924 2.33954,-6.89451 3.97751,-10.07627 3.02242,0.87751 5.31426,6.69877 8.09605,4.48327 1.75313,-0.74131 3.38942,-1.70387 5.16218,-2.36195 l 1.06065,0.61872 c 2.68705,2.24993 4.19747,4.19736 6.8943,6.18718 l 0.56923,0.36881 0.31465,0.16152 0.97227,0.35355 c 2.14037,0.4838 4.33337,-0.45622 6.45234,-0.70712 l 0.53033,0.17679 c 4.00694,2.4294 6.88944,6.32079 10.69499,9.01559 l -0.0884,0 -0.0884,-0.088 0.1768,0.2652 c 1.65575,2.587 3.30766,5.1838 4.94975,7.7782 l 0.35356,0.6187 c 0.0764,2.8023 0.12811,5.6108 0.442,8.3969 l 0.0884,-0.088 0.44187,0.5303 c 2.57847,2.7648 4.55014,4.2127 6.8059,6.6292 l 0.53033,0.6187 -0.0884,-0.1768 0.44195,0.7071 c 1.81606,2.2125 3.01273,5.0109 5.33393,6.8365 0.29552,0.2846 0.82638,0.8429 0.94163,0.9417"
       id="path4328"
       inkscape:connector-curvature="0"
       sodipodi:nodetypes="cccccccccccccccccccccccccccccccccccc"
       inkscape:export-xdpi="120"
       inkscape:export-ydpi="120"
       inkscape:export-filename="/tmp/safe.png" />
    <path
       style="fill:#000000;fill-opacity:1;fill-rule:evenodd;stroke:#000000;stroke-width:1px;stroke-linecap:butt;stroke-linejoin:miter;stroke-opacity:1"
       d="m 35.73766,1034.5195 -4.94974,-5.8336 3.88908,-9.2808 0.26517,-8.4853 3.88908,-6.8059 6.54074,-7.1594 11.13693,2.5633 9.45756,5.5684 -1.85616,10.4298 5.48008,6.0988 -3.44715,6.0104 2.56327,5.1266"
       id="path4330"
       inkscape:connector-curvature="0"
       inkscape:export-xdpi="120"
       inkscape:export-ydpi="120"
       inkscape:export-filename="/tmp/safe.png" />
    <circle
       style="opacity:1;fill:#ffffff;fill-opacity:1;fill-rule:nonzero;stroke:none;stroke-width:1;stroke-linecap:round;stroke-linejoin:round;stroke-miterlimit:4;stroke-dasharray:none;stroke-dashoffset:3;stroke-opacity:1"
       id="path4332"
       cx="51.42804"
       cy="1022.5375"
       r="1.38187"
       inkscape:export-xdpi="120"
       inkscape:export-ydpi="120"
       inkscape:export-filename="/tmp/safe.png" />
    <circle
       r="1.38187"
       cy="1022.2039"
       cx="56.989044"
       id="circle4334"
       style="opacity:1;fill:#ffffff;fill-opacity:1;fill-rule:nonzero;stroke:none;stroke-width:1;stroke-linecap:round;stroke-linejoin:round;stroke-miterlimit:4;stroke-dasharray:none;stroke-dashoffset:3;stroke-opacity:1"
       inkscape:export-xdpi="120"
       inkscape:export-ydpi="120"
       inkscape:export-filename="/tmp/safe.png" />
  </g>
</svg>
